# xmcd CD database file
#
# Track frame offsets:
#	183
#	12278
#	27003
#	37705
#	55543
#	67023
#	84443
#	96510
#	110750
#	122125
#
# Disc length: 1785 seconds
#
# Revision: 0
# Processed by: cddbd v1.5.2PL0 Copyright (c) Steve Scherf et al.
# Submitted via: CDex 1.70beta2
#
DISCID=7806f70a
DTITLE=Kenny Arledge - I Barely Get By
DYEAR=1992
DGENRE=Country
TTITLE0=Girl From Tupelo
TTITLE1=Don't Send Me No Angels
TTITLE2=Wild Side Of Life
TTITLE3=I Can't Keep My Hands Off Of You
TTITLE4=Honky Tonk Song
TTITLE5=Wedding Bells
TTITLE6=These Day's I Barely Get By
TTITLE7=Under Your Spell Again
TTITLE8=Troubles
TTITLE9=Leaving Baby One More Time
EXTD=YEAR: 1992
EXTT0=
EXTT1=
EXTT2=
EXTT3=
EXTT4=
EXTT5=
EXTT6=
EXTT7=
EXTT8=
EXTT9=
PLAYORDER=
